<svg xmlns="http://www.w3.org/2000/svg" width="1024" height="768" viewBox="0 0 1024 768">
  <defs>
    <linearGradient id="bg" x1="0%" y1="0%" x2="100%" y2="100%">
      <stop offset="0%" style="stop-color:#0a0a0a"/>
      <stop offset="100%" style="stop-color:#121212"/>
    </linearGradient>
    <linearGradient id="accent" x1="0%" y1="0%" x2="100%" y2="0%">
      <stop offset="0%" style="stop-color:#f97316"/>
      <stop offset="100%" style="stop-color:#fb923c"/>
    </linearGradient>
  </defs>
  <rect width="1024" height="768" fill="url(#bg)"/>
  <!-- Sidebar -->
  <rect x="0" y="0" width="260" height="768" fill="#0a0a0a" stroke="#1f1f1f" stroke-width="1"/>
  <rect x="24" y="24" width="40" height="40" rx="8" fill="url(#accent)"/>
  <text x="76" y="42" font-family="system-ui" font-size="16" font-weight="bold" fill="white">SARA QUEEN</text>
  <text x="76" y="56" font-family="system-ui" font-size="9" fill="#f97316" letter-spacing="2">DASHBOARD</text>
  <!-- Nav items -->
  <rect x="16" y="90" width="228" height="40" rx="8" fill="#f97316"/>
  <text x="52" y="115" font-family="system-ui" font-size="13" fill="#0a0a0a" font-weight="500">Dashboard</text>
  <rect x="16" y="140" width="228" height="40" rx="8" fill="transparent"/>
  <text x="52" y="165" font-family="system-ui" font-size="13" fill="#6b7280" font-weight="500">Campagnes</text>
  <rect x="16" y="190" width="228" height="40" rx="8" fill="transparent"/>
  <text x="52" y="215" font-family="system-ui" font-size="13" fill="#6b7280" font-weight="500">Comparaison</text>
  <!-- Main content -->
  <rect x="280" y="0" width="744" height="70" fill="#121212" stroke="#1f1f1f" stroke-width="1"/>
  <text x="300" y="42" font-family="system-ui" font-size="18" font-weight="600" fill="white">Dashboard</text>
  <!-- Stats cards -->
  <rect x="300" y="90" width="160" height="100" rx="12" fill="#1a1a1a" stroke="#2a2a2a" stroke-width="1"/>
  <circle cx="330" cy="120" r="16" fill="#f97316" opacity="0.2"/>
  <text x="356" y="125" font-family="system-ui" font-size="11" fill="#9ca3af">Total Leads</text>
  <text x="330" y="155" font-family="system-ui" font-size="28" font-weight="bold" fill="white">1,247</text>
  <text x="330" y="175" font-family="system-ui" font-size="11" fill="#22c55e">? 12.5%</text>
  <rect x="480" y="90" width="160" height="100" rx="12" fill="#1a1a1a" stroke="#2a2a2a" stroke-width="1"/>
  <circle cx="510" cy="120" r="16" fill="#22c55e" opacity="0.2"/>
  <text x="536" y="125" font-family="system-ui" font-size="11" fill="#9ca3af">Qualified</text>
  <text x="510" y="155" font-family="system-ui" font-size="28" font-weight="bold" fill="white">892</text>
  <text x="510" y="175" font-family="system-ui" font-size="11" fill="#22c55e">? 8.3%</text>
  <rect x="660" y="90" width="160" height="100" rx="12" fill="#1a1a1a" stroke="#2a2a2a" stroke-width="1"/>
  <circle cx="690" cy="120" r="16" fill="#3b82f6" opacity="0.2"/>
  <text x="716" y="125" font-family="system-ui" font-size="11" fill="#9ca3af">Conversion</text>
  <text x="690" y="155" font-family="system-ui" font-size="28" font-weight="bold" fill="white">24.8%</text>
  <text x="690" y="175" font-family="system-ui" font-size="11" fill="#22c55e">? 2.1%</text>
  <rect x="840" y="90" width="160" height="100" rx="12" fill="#1a1a1a" stroke="#2a2a2a" stroke-width="1"/>
  <circle cx="870" cy="120" r="16" fill="#a855f7" opacity="0.2"/>
  <text x="896" y="125" font-family="system-ui" font-size="11" fill="#9ca3af">Revenue</text>
  <text x="870" y="155" font-family="system-ui" font-size="28" font-weight="bold" fill="white">$48.2K</text>
  <text x="870" y="175" font-family="system-ui" font-size="11" fill="#22c55e">? 15.7%</text>
  <!-- Chart area -->
  <rect x="300" y="210" width="380" height="280" rx="12" fill="#1a1a1a" stroke="#2a2a2a" stroke-width="1"/>
  <text x="320" y="240" font-family="system-ui" font-size="14" font-weight="600" fill="white">Lead Performance</text>
  <!-- Bar chart -->
  <rect x="340" y="400" width="30" height="60" rx="4" fill="#f97316" opacity="0.8"/>
  <rect x="380" y="370" width="30" height="90" rx="4" fill="#f97316"/>
  <rect x="420" y="350" width="30" height="110" rx="4" fill="#f97316"/>
  <rect x="460" y="380" width="30" height="80" rx="4" fill="#f97316" opacity="0.8"/>
  <rect x="500" y="340" width="30" height="120" rx="4" fill="#f97316"/>
  <rect x="540" y="360" width="30" height="100" rx="4" fill="#f97316" opacity="0.8"/>
  <rect x="580" y="320" width="30" height="140" rx="4" fill="#f97316"/>
  <rect x="620" y="390" width="30" height="70" rx="4" fill="#f97316" opacity="0.8"/>
  <!-- Campaign cards -->
  <rect x="700" y="210" width="300" height="280" rx="12" fill="#1a1a1a" stroke="#2a2a2a" stroke-width="1"/>
  <text x="720" y="240" font-family="system-ui" font-size="14" font-weight="600" fill="white">Top Campaigns</text>
  <rect x="720" y="260" width="260" height="60" rx="8" fill="#222"/>
  <text x="740" y="285" font-family="system-ui" font-size="12" font-weight="500" fill="white">Summer Sale 2024</text>
  <text x="740" y="305" font-family="system-ui" font-size="11" fill="#22c55e">342 leads</text>
  <rect x="720" y="330" width="260" height="60" rx="8" fill="#222"/>
  <text x="740" y="355" font-family="system-ui" font-size="12" font-weight="500" fill="white">Product Launch</text>
  <text x="740" y="375" font-family="system-ui" font-size="11" fill="#3b82f6">289 leads</text>
  <rect x="720" y="400" width="260" height="60" rx="8" fill="#222"/>
  <text x="740" y="425" font-family="system-ui" font-size="12" font-weight="500" fill="white">Brand Awareness</text>
  <text x="740" y="445" font-family="system-ui" font-size="11" fill="#a855f7">216 leads</text>
  <!-- Bottom section -->
  <rect x="300" y="510" width="700" height="200" rx="12" fill="#1a1a1a" stroke="#2a2a2a" stroke-width="1"/>
  <text x="320" y="540" font-family="system-ui" font-size="14" font-weight="600" fill="white">Campaign Comparison</text>
  <text x="320" y="580" font-family="system-ui" font-size="12" fill="#6b7280">Metrics overview across all active campaigns</text>
</svg>
