<svg xmlns="http://www.w3.org/2000/svg" width="1024" height="768" viewBox="0 0 1024 768">
  <defs>
    <linearGradient id="bg" x1="0%" y1="0%" x2="100%" y2="100%">
      <stop offset="0%" style="stop-color:#0a0a0a"/>
      <stop offset="100%" style="stop-color:#111"/>
    </linearGradient>
    <linearGradient id="red" x1="0%" y1="0%" x2="100%" y2="0%">
      <stop offset="0%" style="stop-color:#dc2626"/>
      <stop offset="100%" style="stop-color:#ef4444"/>
    </linearGradient>
  </defs>
  <rect width="1024" height="768" fill="url(#bg)"/>
  <!-- Grid pattern -->
  <pattern id="grid" width="40" height="40" patternUnits="userSpaceOnUse">
    <path d="M 40 0 L 0 0 0 40" fill="none" stroke="#1a1a1a" stroke-width="0.5"/>
  </pattern>
  <rect width="1024" height="768" fill="url(#grid)" opacity="0.3"/>
  <!-- Nav -->
  <rect x="0" y="0" width="1024" height="70" fill="#0a0a0a" opacity="0.9"/>
  <rect x="40" y="20" width="40" height="30" rx="4" fill="url(#red)"/>
  <text x="90" y="42" font-family="system-ui" font-size="20" font-weight="bold" fill="white">AMM</text>
  <text x="600" y="42" font-family="system-ui" font-size="14" fill="#9ca3af">Home</text>
  <text x="660" y="42" font-family="system-ui" font-size="14" fill="#9ca3af">Product</text>
  <text x="730" y="42" font-family="system-ui" font-size="14" fill="#9ca3af">Contact</text>
  <rect x="800" y="22" width="80" height="30" rx="8" fill="url(#red)"/>
  <text x="820" y="42" font-family="system-ui" font-size="12" font-weight="600" fill="white">Devis</text>
  <!-- Hero -->
  <rect x="0" y="70" width="1024" height="500" fill="#0a0a0a"/>
  <text x="512" y="280" font-family="system-ui" font-size="64" font-weight="bold" fill="white" text-anchor="middle" letter-spacing="-1">CENTRAL A BETON</text>
  <text x="512" y="340" font-family="system-ui" font-size="64" font-weight="bold" fill="url(#red)" text-anchor="middle" letter-spacing="-1">Fabricant</text>
  <text x="512" y="390" font-family="system-ui" font-size="20" fill="#9ca3af" text-anchor="middle">Des solutions adaptťes pour vos projets BTP, industriels et bťton.</text>
  <rect x="412" y="420" width="120" height="45" rx="12" fill="url(#red)"/>
  <text x="432" y="448" font-family="system-ui" font-size="14" font-weight="600" fill="white">Get Offer</text>
  <rect x="552" y="420" width="140" height="45" rx="12" fill="transparent" stroke="#374151" stroke-width="1"/>
  <text x="572" y="448" font-family="system-ui" font-size="14" fill="#9ca3af">Voir Product</text>
  <!-- Products section -->
  <rect x="0" y="580" width="1024" height="188" fill="#111"/>
  <text x="512" y="620" font-family="system-ui" font-size="14" fill="#dc2626" text-anchor="middle" letter-spacing="3">NOS SOLUTIONS</text>
  <text x="512" y="650" font-family="system-ui" font-size="24" font-weight="bold" fill="white" text-anchor="middle">Nos types de centrales ŗ bťton</text>
  <!-- Product cards -->
  <rect x="40" y="680" width="220" height="80" rx="12" fill="#1a1a1a" stroke="#2a2a2a" stroke-width="1"/>
  <rect x="60" y="700" width="40" height="40" rx="8" fill="#dc2626" opacity="0.2"/>
  <text x="110" y="720" font-family="system-ui" font-size="12" font-weight="500" fill="white">Centrale Mobile</text>
  <rect x="280" y="680" width="220" height="80" rx="12" fill="#1a1a1a" stroke="#2a2a2a" stroke-width="1"/>
  <rect x="300" y="700" width="40" height="40" rx="8" fill="#dc2626" opacity="0.2"/>
  <text x="350" y="720" font-family="system-ui" font-size="12" font-weight="500" fill="white">Centrale Fixe</text>
  <rect x="520" y="680" width="220" height="80" rx="12" fill="#1a1a1a" stroke="#2a2a2a" stroke-width="1"/>
  <rect x="540" y="700" width="40" height="40" rx="8" fill="#dc2626" opacity="0.2"/>
  <text x="590" y="720" font-family="system-ui" font-size="12" font-weight="500" fill="white">Centrale Modulaire</text>
  <rect x="760" y="680" width="220" height="80" rx="12" fill="#1a1a1a" stroke="#2a2a2a" stroke-width="1"/>
  <rect x="780" y="700" width="40" height="40" rx="8" fill="#dc2626" opacity="0.2"/>
  <text x="830" y="720" font-family="system-ui" font-size="12" font-weight="500" fill="white">Centrale Semi-fixe</text>
</svg>
